<?xml version="1.0" standalone="no"?>
<!DOCTYPE svg PUBLIC "-//W3C//DTD SVG 20001102//EN" "http://www.w3.org/TR/2000/CR-SVG-20001102/DTD/svg-20001102.dtd">
<svg width="100%" height="100%">
<defs>
<font horiz-adv-x="995">
<font-face font-family="IRRoya" units-per-em="2048" panose-1="2 0 5 3 0 0 0 2 0 2" ascent="2100" descent="-1300" baseline="0" />
<missing-glyph horiz-adv-x="1063" d="" />
<glyph unicode=" " horiz-adv-x="395" glyph-name="space"/>
<glyph unicode="!" horiz-adv-x="362" glyph-name="exclam" d="M361 949L310 273H248L194 947V1216H361V949ZM357 -29H198V129H357V-29Z"/>
<glyph unicode="&quot;" horiz-adv-x="480" glyph-name="quotedbl" d="M78 1325H180L158 1003H90L78 1325ZM291 1325H392L370 1003H303L291 1325Z"/>
<glyph unicode="#" horiz-adv-x="870" glyph-name="numbersign" d="M820 376H630L576 0H475L530 376H296L239 0H138L195 376H8V472H211L247 705H56V801H261L315 1153H416L362 801H593L646 1153H747L694 801H864V705H681L646 472H820V376ZM348 705L312 472H545L580 705H348Z"/>
<glyph unicode="$" horiz-adv-x="870" glyph-name="dollar" d="M714 870Q691 981 630 1038T460 1109V681Q539 635 590 604T673 548T725 501T761 452Q777 426 787 384T796 296Q796 233 772 181T705 93Q682 74 659 60T607 36T544 17T460 0V-151H400V0Q345 2 303 7T223 22T150 48T76 88V315H103Q134 178 206 114T400 48V540Q354 566 322 585T267 620T226 651T188 684Q135 733 113 781T90 892Q90 949 115 999T184 1083Q206 1100 227 1112T273 1132T329 1146T400 1156V1266H460V1156Q515 1149 557 1141T633 1121T692 1096T739 1063V870H714ZM399 1109Q219 1073 219 930Q219 900 227 875T255 826T310 773T399 709V1109ZM460 48Q563 68 611 117T658 254Q658 294 650 325T619 385T559 443T460 510V48Z"/>
<glyph unicode="%" horiz-adv-x="1450" glyph-name="percent" d="M1164 646Q1252 646 1298 599T1344 460Q1344 409 1334 358T1304 259T1256 168T1194 88Q1148 43 1099 22T990 0Q943 0 905 16T839 61T797 132T782 224Q782 306 814 382T900 517T1022 611T1164 646ZM1176 590Q1136 590 1099 566T1027 489Q1003 454 982 412T946 326T923 240T914 164Q914 113 943 83T1020 52Q1068 52 1108 76T1189 151Q1214 182 1234 219T1269 295T1291 374T1299 450Q1299 479 1289 505T1263 549T1224 579T1176 590ZM433 -23H350L960 1067Q934 1052 912 1042T868 1026T822 1018T769 1015Q731 1015 706 1019T656 1032Q663 1009 666 992T668 955Q668 904 656 851T622 747T567 652T496 575T410 522T312 503Q269 503 232 521T166 568T122 639T106 724Q106 807 138 885T224 1022T347 1117T491 1153Q511 1153 527 1151T556 1144T583 1129T613 1105Q644 1078 678 1068T764 1058Q804 1058 839 1064T905 1084T969 1121T1036 1176H1103L433 -23ZM609 1045Q589 1050 576 1055T552 1064T532 1075T513 1090Q505 1097 501 1098T491 1100Q450 1100 404 1060T320 947Q303 914 288 877T262 802T245 730T239 668Q239 620 267 592T341 563Q394 563 445 597T536 687T601 814T625 959Q625 997 609 1045Z"/>
<glyph unicode="&amp;" horiz-adv-x="1354" glyph-name="ampersand" d="M1238 705Q1205 700 1181 694T1139 676T1105 648T1074 603L1028 522Q1008 486 989 456T950 395T907 332T855 261Q976 101 1123 101Q1147 101 1167 106T1204 121T1240 149T1279 193L1306 174Q1267 80 1198 29T1043 -23Q1005 -23 970 -14T899 14T826 64T747 136Q698 93 653 63T563 13T471 -14T371 -23Q230 -23 152 48T73 244Q73 355 140 446T347 618L412 656Q394 705 383 742T364 807T355 860T352 909Q352 964 373 1013T430 1098T515 1155T620 1176Q671 1176 715 1161T789 1118T838 1051T855 966Q855 923 839 880T796 807Q778 787 759 771T716 738T661 706T585 668Q613 612 639 566T692 478T749 396T814 310Q856 365 886 411T936 496T964 566T973 626Q973 645 968 659T950 682T916 697T862 705V741H1238V705ZM558 724Q665 782 714 841T762 973Q762 1005 752 1032T723 1079T679 1110T623 1121Q563 1121 526 1081T489 978Q489 949 493 921T505 863T526 799T558 724ZM439 597Q382 561 343 528T279 461T244 391T233 314Q233 263 251 219T300 141T371 88T458 68Q512 68 570 94T703 181Q666 227 635 270T573 360T510 465T439 597Z"/>
<glyph unicode="&apos;" horiz-adv-x="384" glyph-name="quotesingle" d="M142 1325H243L221 1003H154L142 1325Z"/>
<glyph unicode="(" horiz-adv-x="557" glyph-name="parenleft" d="M556 -124L519 -169Q357 -17 269 199Q194 383 194 547Q194 703 262 880Q350 1109 519 1266L556 1220Q322 855 322 550Q322 243 556 -124Z"/>
<glyph unicode=")" horiz-adv-x="557" glyph-name="parenright" d="M194 1220L231 1266Q393 1113 481 898Q556 715 556 549Q556 396 487 216Q399 -14 231 -169L194 -124Q427 242 427 546Q427 853 194 1220Z"/>
<glyph unicode="*" horiz-adv-x="774" glyph-name="asterisk" d="M430 713V569Q430 555 422 545T399 535H348Q340 535 330 545T319 569V713L221 612Q193 594 164 612L133 645Q115 668 139 694L240 797H96Q82 797 70 806T57 831V881Q57 891 70 900T96 909H231L133 1010Q119 1022 118 1037T127 1065L164 1096Q174 1106 187 1105T211 1090L319 985V1141Q319 1153 330 1165T348 1176H399Q414 1176 422 1165T430 1141V991L537 1096Q549 1110 561 1111T592 1104L618 1065Q629 1057 629 1045T616 1016L512 909H668Q678 909 690 900T702 881V831Q702 815 690 806T668 797H504L616 694Q635 668 616 637L586 606Q563 588 537 612L430 713Z"/>
<glyph unicode="+" horiz-adv-x="864" glyph-name="plus" d="M356 326H96V459H356V723H489V459H762V326H489V63H356V326Z"/>
<glyph unicode="," horiz-adv-x="418" glyph-name="comma" d="M79 105Q79 124 89 143T115 177T154 202T201 211Q232 211 258 199T301 166T329 114T338 49Q338 -119 198 -194Q187 -200 174 -202T146 -205Q124 -205 124 -194Q130 -187 154 -165Q238 -92 238 12Q207 2 177 2Q79 2 79 105Z"/>
<glyph unicode="-" horiz-adv-x="894" glyph-name="hyphen" d="M96 326V459H762V326H96Z"/>
<glyph unicode="." horiz-adv-x="589" glyph-name="period" d="M510 104Q510 59 480 29T405 -2Q383 -2 364 7T331 29T308 63T299 104Q299 126 308 145T331 178T364 201T405 209Q427 209 446 201T480 178T502 145T510 104Z"/>
<glyph unicode="/" horiz-adv-x="423" glyph-name="slash" d="M378 1119L112 -93H43L310 1119H378Z"/>
<glyph unicode="0" horiz-adv-x="960" glyph-name="zero" d="M482 1176Q567 1176 639 1133T761 1010T841 820T869 575Q869 496 857 420T823 278T770 157T701 66Q653 20 599 -2T475 -25Q399 -25 335 6T221 94Q190 130 165 185T121 305T92 442T82 585Q82 661 94 736T127 876T180 996T249 1086Q298 1132 354 1154T482 1176ZM477 1131Q249 1131 249 569Q249 21 475 21Q701 21 701 571Q701 849 645 990T477 1131Z"/>
<glyph unicode="1" horiz-adv-x="960" glyph-name="one" d="M565 1173V129Q565 97 572 78T596 47T647 32T731 26V0H251V26Q278 27 297 29T330 32T355 38T374 48Q416 73 416 161V950Q416 1032 364 1032Q341 1032 314 1024T238 994V1018L552 1176L565 1173Z"/>
<glyph unicode="2" horiz-adv-x="960" glyph-name="two" d="M776 0H97V21L407 350Q519 468 576 584T633 802Q633 857 615 903T565 980T488 1030T388 1048Q343 1048 308 1037T243 999T187 929T135 822L99 830Q110 876 121 911T145 974T174 1024T211 1068Q260 1121 324 1149T461 1176Q528 1176 587 1153T690 1088T758 990T783 869Q783 818 770 767T730 664T660 556T560 439L268 133H684Q713 133 734 137T772 153T807 188T849 247L872 239L776 0Z"/>
<glyph unicode="3" horiz-adv-x="960" glyph-name="three" d="M311 597Q356 613 389 627T446 654T491 682T530 717Q564 750 582 794T600 886Q600 927 586 962T547 1021T487 1059T409 1073Q326 1073 265 1028T150 887L123 895Q137 934 150 964T177 1016T205 1056T240 1091Q289 1133 345 1155T467 1176Q527 1176 577 1159T662 1110T718 1034T738 938Q738 903 730 873T702 814T651 757T575 698Q603 686 625 676T663 654T693 632T719 606Q757 564 777 506T797 382Q797 290 761 215T661 86T508 4T316 -25Q225 -25 173 2T120 75Q120 102 138 119T186 136Q209 136 234 126T297 93Q345 61 377 50T444 38Q492 38 534 58T606 113T654 195T671 297Q671 342 659 383T624 458T568 516T495 555Q480 561 464 565T426 571T378 574T311 575V597Z"/>
<glyph unicode="4" horiz-adv-x="960" glyph-name="four" d="M867 291H689V0H555V291H66V402L613 1176H689V402H867V291ZM553 1000L135 402H553V1000Z"/>
<glyph unicode="5" horiz-adv-x="960" glyph-name="five" d="M287 867Q364 853 423 838T526 805T605 764T668 714Q701 681 724 649T761 582T782 507T788 422Q788 322 760 247T671 111Q605 45 515 10T313 -25Q213 -25 157 4T101 83Q101 148 176 148Q203 148 235 135T308 90Q347 61 373 51T424 40Q475 40 519 63T596 126T648 221T666 337Q666 467 596 551T374 683Q320 700 270 709T178 717Q156 717 156 731Q156 733 158 739L348 1153H711Q739 1153 756 1162T792 1198L807 1186L741 1030Q737 1021 730 1018T701 1015H360L287 867Z"/>
<glyph unicode="6" horiz-adv-x="960" glyph-name="six" d="M825 1163Q723 1146 636 1103T483 996T372 849T309 666Q350 691 380 707T434 731T481 742T532 745Q607 745 668 720T771 647T836 532T859 382Q859 292 833 217T758 88T642 5T494 -25Q404 -25 332 13T209 119T131 280T104 485Q104 664 177 806T395 1051Q443 1085 488 1108T582 1146T689 1172T821 1191L825 1163ZM467 665Q419 665 381 654T314 621Q288 601 277 563T266 458Q266 357 283 277T332 140T410 55T513 25Q607 25 655 101T703 322Q703 404 687 468T641 575T567 642T467 665Z"/>
<glyph unicode="7" horiz-adv-x="960" glyph-name="seven" d="M827 1125L457 -14H344L689 1023H311Q275 1023 250 1018T202 997T159 955T110 882L80 897L183 1153H827V1125Z"/>
<glyph unicode="8" horiz-adv-x="960" glyph-name="eight" d="M550 646Q629 587 681 540T764 450T807 363T819 269Q819 202 795 148T727 55T619 -4T477 -25Q403 -25 342 -4T236 56T168 147T143 263Q143 308 152 343T185 412T254 485T369 578Q300 638 258 680T193 758T161 827T153 902Q153 961 178 1012T247 1099T352 1156T484 1176Q549 1176 604 1158T699 1107T761 1029T783 930Q783 885 771 848T731 778T659 712T550 646ZM414 543Q376 513 350 483T306 421T282 354T274 277Q274 220 290 174T336 94T406 43T495 25Q538 25 574 39T635 78T674 139T688 216Q688 253 680 284T651 344T599 403T518 467L414 543ZM500 677Q505 682 507 683T515 688Q590 739 627 798T663 932Q663 977 650 1013T611 1075T550 1114T470 1128Q429 1128 395 1116T335 1080T296 1025T282 955Q282 919 294 885T333 818T400 750T500 677Z"/>
<glyph unicode="9" horiz-adv-x="960" glyph-name="nine" d="M143 -3Q242 14 327 57T480 165T596 318T671 512Q603 458 543 435T410 412Q340 412 283 438T184 510T120 621T97 766Q97 854 125 929T201 1059T315 1145T459 1176Q543 1176 614 1140T736 1039T816 884T844 686Q844 597 825 514T769 355T679 216T557 103Q512 70 470 48T381 9T278 -18T148 -38L143 -3ZM675 686Q675 1128 445 1128Q367 1128 322 1074Q308 1057 296 1030T276 969T262 899T257 825Q257 747 272 685T316 578T384 511T473 487Q521 487 566 504T649 552Q663 564 669 578T675 618V686Z"/>
<glyph unicode=":" horiz-adv-x="752" glyph-name="colon" d="M620 104Q620 59 590 29T515 -2Q493 -2 474 7T441 29T418 63T409 104Q409 126 418 145T441 178T474 201T515 209Q537 209 556 201T590 178T612 145T620 104ZM620 617Q620 572 590 542T515 511Q493 511 474 520T441 542T418 576T409 617Q409 639 418 658T441 691T474 714T515 722Q537 722 556 714T590 691T612 658T620 617Z"/>
<glyph unicode=";" horiz-adv-x="356" glyph-name="semicolon" d="M253 522Q253 504 246 488T227 460T198 441T164 434Q146 434 130 441T102 460T82 488T75 522Q75 559 101 585T164 611Q201 611 227 585T253 522ZM79 105Q79 124 89 143T115 177T154 202T201 211Q232 211 258 199T301 166T329 114T338 49Q338 -119 198 -194Q187 -200 174 -202T146 -205Q124 -205 124 -194Q130 -187 154 -165Q238 -92 238 12Q207 2 177 2Q79 2 79 105Z"/>
<glyph unicode="&lt;" horiz-adv-x="1117" glyph-name="less" d="M955 58L150 444V534L955 918V784L331 489L955 192V58Z"/>
<glyph unicode="=" horiz-adv-x="1029" glyph-name="equal" d="M873 586H144V706H873V586ZM873 271H144V391H873V271Z"/>
<glyph unicode="&gt;" horiz-adv-x="1117" glyph-name="greater" d="M966 444L160 58V192L786 489L160 784V918L966 534V444Z"/>
<glyph unicode="?" horiz-adv-x="773" glyph-name="question" d="M395 286Q397 343 410 405T447 533L496 644Q528 716 544 786T560 915Q560 958 546 997T506 1064T446 1109T372 1125Q340 1125 311 1116T258 1092T221 1058T207 1017Q207 997 237 963Q257 940 266 923T274 887Q274 856 254 837T202 817Q160 817 139 845T118 924Q118 978 140 1024T199 1104T289 1157T400 1176Q472 1176 542 1149T658 1076Q688 1047 705 1003T721 907Q721 854 703 803T643 688Q634 674 628 665T612 644T585 611T538 553Q514 523 496 494T465 433T442 365T425 286H395ZM412 173Q431 173 449 166T479 145T500 114T507 76Q507 38 480 12T411 -14Q372 -14 346 12T320 75Q320 117 347 145T412 173Z"/>
<glyph unicode="@" horiz-adv-x="1603" glyph-name="at" d="M1219 75Q1156 46 1106 27T1013 -3T928 -20T841 -25Q706 -25 589 21T386 146T251 334T202 568Q202 695 252 806T387 999T589 1129T837 1176Q958 1176 1062 1137T1243 1029T1364 867T1408 666Q1408 582 1383 507T1313 374T1211 283T1088 249Q1025 249 982 284T930 376Q885 316 828 284T712 251Q680 251 652 266T603 307T570 369T558 445Q558 520 584 598T656 740T765 844T900 884Q922 884 939 880T971 866T998 838T1025 794L1043 860H1163L1050 418Q1046 405 1046 387Q1046 306 1114 306Q1157 306 1198 335T1270 412T1320 522T1339 649Q1339 746 1300 833T1192 984T1033 1086T839 1123Q742 1123 658 1090T510 990Q473 951 443 902T392 798T360 683T348 563Q348 449 386 354T492 189T653 82T857 43Q900 43 940 48T1020 62T1104 88T1198 127L1219 75ZM924 807H917Q885 807 847 784T773 721Q683 619 683 473Q683 404 711 365T787 326Q817 326 845 345T895 394T937 465T968 548T988 633T995 710Q995 755 977 780T924 807Z"/>
<glyph unicode="A" horiz-adv-x="1257" glyph-name="A" d="M1229 0H785V33Q819 34 843 37T881 47T901 65T907 93Q907 110 899 142T874 209L802 376H347L266 173Q260 156 256 138T252 105Q252 68 280 51T371 33V0H26V33Q57 34 79 44T123 83T173 168T242 319L604 1173H639L1073 184Q1095 136 1112 107T1145 63T1181 41T1229 33V0ZM778 447L576 926L376 447H778Z"/>
<glyph unicode="B" horiz-adv-x="1161" glyph-name="B" d="M517 1153Q973 1153 973 857Q973 803 955 758T904 683Q888 669 873 658T838 639T793 622T734 606Q776 595 808 585T863 565T907 541T947 510Q989 472 1011 422T1032 314Q1032 247 1006 190T927 90T795 24T611 0H30V33Q84 35 117 42T167 65T191 112T196 190V963Q196 1011 191 1040T168 1086T118 1109T30 1119V1153H517ZM374 136Q374 115 379 102T397 80T431 68T484 65Q578 65 645 81T753 127T813 204T832 312Q832 396 797 449T686 533Q662 542 634 549T570 560T486 566T374 568V136ZM540 637Q665 637 731 692T796 849Q796 967 719 1028T489 1088H412Q393 1088 384 1076T374 1036V637H540Z"/>
<glyph unicode="C" horiz-adv-x="1161" glyph-name="C" d="M1040 784Q1027 826 1015 858T990 914T961 960T924 1001Q817 1108 665 1108Q570 1108 494 1071T363 967T280 803T251 588Q251 456 282 356T369 188T505 86T683 52Q737 52 786 62T882 94T976 148T1071 228L1102 196Q1021 90 899 33T626 -25Q503 -25 397 16T214 134T92 320T48 566Q48 712 96 829T237 1027Q318 1099 420 1138T632 1176Q695 1176 759 1166T886 1135Q906 1127 924 1123T954 1119Q980 1119 1000 1134T1027 1176H1063V784H1040Z"/>
<glyph unicode="D" horiz-adv-x="1257" glyph-name="D" d="M181 963Q181 1011 177 1040T156 1085T110 1108T28 1119V1153H498Q660 1153 789 1115T1008 1003T1146 823T1193 581Q1193 452 1149 345T1020 162T809 43T522 0H28V33Q77 36 108 44T154 68T176 114T181 190V963ZM359 136Q359 115 363 102T378 80T406 68T449 65Q506 65 554 69T643 82T721 104T790 136Q1003 259 1003 569Q1003 856 796 1001Q671 1088 449 1088Q422 1088 405 1085T377 1075T363 1054T359 1020V136Z"/>
<glyph unicode="E" horiz-adv-x="1063" glyph-name="E" d="M960 0H21V33Q69 36 99 44T145 69T167 115T173 190V963Q173 1009 168 1038T146 1083T99 1108T21 1119V1153H945V904H907Q896 962 881 998T838 1054T763 1080T643 1086H407Q372 1086 361 1075T350 1027V641H618Q738 641 771 684Q778 693 783 704T792 728T800 760T809 806H849V402H809Q801 456 791 489T760 540T706 564T618 569H350V139Q350 117 353 103T362 85Q366 80 381 77T420 71T472 67T533 65H580Q673 65 737 75T847 109T925 179T990 294H1040L960 0Z"/>
<glyph unicode="F" horiz-adv-x="968" glyph-name="F" d="M794 402Q786 454 775 487T743 538T689 563T603 569H350V190Q350 143 356 114T379 67T427 43T508 33V0H21V33Q70 36 100 44T147 71T168 122T173 209V963Q173 1009 168 1038T146 1083T99 1108T21 1119V1153H945V904H907Q896 962 881 998T838 1054T763 1080T643 1086H405Q388 1086 377 1084T360 1075T352 1057T350 1027V641H603Q654 641 688 647T742 671T775 721T794 806H834V402H794Z"/>
<glyph unicode="G" horiz-adv-x="1257" glyph-name="G" d="M1234 585Q1196 582 1173 575T1136 553T1118 514T1113 450V98Q1087 75 1037 53T925 14T798 -14T676 -25Q529 -25 409 23T201 161Q126 239 91 338T56 566Q56 699 100 811T224 1004T413 1131T653 1176Q773 1176 890 1136Q941 1119 966 1119Q994 1119 1016 1136T1045 1176H1083V809H1057Q1040 849 1026 879T997 932T968 974T933 1011Q830 1108 683 1108Q588 1108 510 1072T374 967T286 798T254 568Q254 446 286 350T377 185T521 81T712 45Q759 45 801 54T875 76T925 109T943 148V430Q943 487 935 518T907 560Q899 566 891 570T869 576T837 581T790 585V616H1234V585Z"/>
<glyph unicode="H" horiz-adv-x="1257" glyph-name="H" d="M892 625V963Q892 1009 887 1038T866 1084T819 1108T738 1119V1153H1222V1119Q1172 1115 1142 1108T1095 1084T1073 1038T1068 963V190Q1068 143 1074 115T1096 69T1142 45T1222 33V0H738V33Q789 36 820 44T866 70T887 121T892 209V548H364V190Q364 143 370 115T392 69T438 45T517 33V0H33V33Q84 36 115 44T161 70T181 121T186 209V963Q186 1009 181 1038T160 1084T114 1108T33 1119V1153H517V1119Q467 1115 437 1108T390 1084T369 1038T364 963V625H892Z"/>
<glyph unicode="I" horiz-adv-x="580" glyph-name="I" d="M201 963Q201 1011 195 1040T171 1086T120 1109T31 1119V1153H548V1119Q493 1117 460 1111T408 1087T383 1041T377 963V190Q377 142 384 113T409 66T461 42T548 33V0H31V33Q86 35 120 42T171 65T195 111T201 190V963Z"/>
<glyph unicode="J" horiz-adv-x="677" glyph-name="J" d="M484 319Q484 153 409 64T190 -25Q152 -25 120 -15T65 11T30 51T17 101Q17 119 24 135T43 162T70 181T103 188Q167 188 193 99Q203 67 213 55T241 42Q275 42 291 69T306 156V963Q306 1011 301 1040T279 1085T230 1108T144 1119V1153H644V1119Q591 1115 560 1108T511 1085T489 1040T484 963V319Z"/>
<glyph unicode="K" horiz-adv-x="1257" glyph-name="K" d="M719 1153H1175V1119Q1131 1116 1101 1111T1043 1091T985 1051T910 983L580 656L985 221Q1045 158 1083 121T1148 65T1201 40T1259 33V0H728V33Q733 35 739 35T749 35H762H776Q813 35 831 46T849 73Q849 89 832 119T785 188T714 273T623 369L439 552L394 515V190Q394 143 399 114T421 67T468 43T550 33V0H59V33Q110 36 141 44T189 71T211 122T216 209V963Q216 1009 211 1038T189 1084T141 1108T59 1119V1153H553V1119Q500 1115 469 1108T421 1085T399 1040T394 963V606L701 886Q774 952 805 994T837 1065Q837 1083 831 1093T811 1108T775 1115T719 1119V1153Z"/>
<glyph unicode="L" horiz-adv-x="1063" glyph-name="L" d="M1041 303L957 0H21V33Q69 36 99 44T145 69T167 115T173 190V963Q173 1009 168 1038T146 1083T99 1108T21 1119V1153H512V1119Q460 1116 429 1109T380 1084T356 1038T350 963V139Q350 116 356 102T377 81T423 71T500 68H616Q725 68 799 92T917 167Q937 189 956 220T998 303H1041Z"/>
<glyph unicode="M" horiz-adv-x="1548" glyph-name="M" d="M728 0H703L266 957V256Q266 190 273 148T298 82T348 47T430 33V0H21V33Q75 37 109 47T160 81T184 147T190 256V963Q190 1011 184 1040T161 1086T111 1109T25 1119V1153H369L771 274L1156 1153H1502V1119Q1454 1115 1425 1108T1379 1084T1357 1038T1351 963V190Q1351 143 1357 114T1379 68T1425 44T1502 33V0H1015V33Q1067 36 1098 44T1146 71T1168 122T1173 209V998L728 0Z"/>
<glyph unicode="N" horiz-adv-x="1257" glyph-name="N" d="M1036 -20L266 938V256Q266 190 273 148T298 82T348 47T430 33V0H21V33Q75 37 109 47T160 81T184 147T190 256V1023Q164 1054 145 1073T107 1102T69 1116T21 1119V1153H319L989 310V897Q989 966 982 1008T957 1073T906 1106T822 1119V1153H1231V1119Q1205 1117 1188 1114T1157 1108T1135 1099T1116 1088Q1065 1052 1065 897V-20H1036Z"/>
<glyph unicode="O" horiz-adv-x="1257" glyph-name="O" d="M628 1176Q746 1176 850 1135T1031 1015T1153 824T1198 569Q1198 438 1156 329T1037 141T853 19T618 -25Q561 -25 504 -12T394 23T294 79T209 153Q137 231 98 341T59 576Q59 707 101 818T219 1008T399 1132T628 1176ZM628 1114Q556 1114 493 1086T379 1001Q351 969 329 924T291 823T267 704T258 573Q258 501 269 433T298 305T344 200T405 123Q453 81 509 60T625 38Q764 38 857 131Q918 192 942 258Q968 326 984 410T1000 571Q1000 703 973 805T896 975T778 1079T628 1114Z"/>
<glyph unicode="P" horiz-adv-x="968" glyph-name="P" d="M352 190Q352 142 358 113T382 66T431 42T515 33V0H28V33Q77 37 106 45T150 71T170 122T174 209V963Q174 1009 169 1038T149 1083T105 1107T28 1119V1153H487Q548 1153 606 1144T715 1119T806 1079T872 1027Q907 989 925 941T943 837Q943 750 899 676T776 560Q747 544 715 533T647 514T567 504T472 501Q438 501 412 503T352 507V190ZM352 576Q382 574 403 573T450 571Q754 571 754 827Q754 962 671 1025T411 1088Q376 1088 364 1076T352 1028V576Z"/>
<glyph unicode="Q" horiz-adv-x="1257" glyph-name="Q" d="M1221 -308Q1209 -310 1202 -310T1190 -310Q961 -310 800 -259T543 -98L462 -2Q415 14 380 29T317 62T264 100T214 148Q59 315 59 573Q59 705 101 816T219 1007T399 1132T628 1176Q752 1176 857 1132T1038 1008T1156 818T1198 576Q1198 284 1003 110Q973 83 945 64T887 30T821 6T741 -12Q794 -81 848 -130T959 -211T1082 -259T1221 -277V-308ZM633 1114Q558 1114 496 1087T379 1001Q352 972 330 927T292 826T267 708T258 583Q258 449 285 347T361 177T478 73T628 38Q700 38 765 67T879 150Q906 180 928 227T966 330T991 451T1000 580Q1000 705 972 804T895 972T779 1078T633 1114Z"/>
<glyph unicode="R" horiz-adv-x="1161" glyph-name="R" d="M1147 0H867L452 536H355V190Q355 143 361 114T383 68T431 44T512 33V0H30V33Q79 37 108 45T153 71T173 122T178 209V963Q178 1009 173 1037T153 1082T108 1106T30 1119V1153H510Q728 1153 840 1073T952 846Q952 783 929 732T864 646Q842 628 821 615T773 592T714 573T637 555L995 115Q1014 93 1031 78T1066 54T1103 40T1147 33V0ZM355 597Q417 598 462 601T542 611T605 628T663 656Q711 681 737 732T762 849Q762 972 685 1030T444 1088Q418 1088 401 1085T373 1075T359 1056T355 1025V597Z"/>
<glyph unicode="S" horiz-adv-x="968" glyph-name="S" d="M817 806H773Q762 845 752 874T730 925T703 969T666 1010Q618 1058 567 1082T455 1105Q414 1105 381 1094T324 1061T287 1009T274 943Q274 908 289 876T334 811T413 744T530 672Q616 625 678 580T779 489T837 395T855 292Q855 225 828 167T753 67T640 0T500 -25Q446 -25 396 -14T294 15Q240 35 212 35Q192 35 179 19T164 -23H125L73 347H113Q179 187 264 113T465 38Q513 38 552 53T620 93T664 155T679 235Q679 267 672 293T654 336Q621 387 555 438T395 540Q322 579 271 617T186 696T138 781T123 879Q123 1015 216 1096Q261 1134 315 1155T425 1176Q467 1176 514 1167T609 1138Q658 1118 686 1118Q731 1118 741 1176H778L817 806Z"/>
<glyph unicode="T" horiz-adv-x="1063" glyph-name="T" d="M348 1079Q275 1079 229 1071T153 1039T105 972T71 857H30V1153H1022V857H990Q975 929 958 973T912 1040T835 1071T714 1079H620V190Q620 142 626 113T650 67T701 43T787 33V0H279V33Q333 36 365 43T415 69T437 120T442 209V1079H348Z"/>
<glyph unicode="U" horiz-adv-x="1257" glyph-name="U" d="M1063 442Q1063 392 1060 351T1050 276T1033 212T1006 155Q901 -25 618 -25Q396 -25 289 84T181 420V963Q181 1011 176 1040T154 1085T107 1108T25 1119V1153H517V1119Q464 1115 433 1108T386 1084T364 1038T359 963V405Q359 323 369 270T402 176Q472 52 658 52Q707 52 752 62T834 89T900 133T947 190Q968 229 978 284T987 427V897Q987 962 981 1003T956 1069T907 1104T824 1119V1153H1227V1119Q1174 1113 1142 1103T1092 1068T1069 1004T1063 897V442Z"/>
<glyph unicode="V" horiz-adv-x="1257" glyph-name="V" d="M1213 1119Q1181 1117 1161 1111T1124 1088T1091 1040T1053 957L666 -20H641L212 937Q184 995 164 1030T125 1085T83 1111T28 1119V1153H491V1119Q424 1116 392 1106T360 1062Q360 1052 363 1039T374 1003T396 949T432 869L694 280L950 919Q967 959 975 992T983 1046Q983 1083 956 1099T857 1119V1153H1213V1119Z"/>
<glyph unicode="W" horiz-adv-x="1643" glyph-name="W" d="M1623 1119Q1588 1113 1566 1106T1528 1085T1501 1051T1478 995Q1431 867 1397 774T1336 605T1286 466T1239 332T1188 178T1123 -20H1096L819 717L550 -20H524L188 915Q164 976 146 1015T108 1075T65 1107T8 1119V1153H435V1119Q402 1117 380 1114T346 1104T328 1088T322 1063Q322 1049 327 1028T341 983L592 329L778 820L721 963Q698 1015 682 1046T648 1093T607 1114T545 1119V1153H1010V1119Q938 1118 907 1104T875 1058Q875 1035 889 1002T922 917L1153 324L1370 914Q1384 950 1391 984T1398 1045Q1398 1080 1372 1097T1278 1119V1153H1623V1119Z"/>
<glyph unicode="X" horiz-adv-x="1257" glyph-name="X" d="M1211 1119Q1170 1117 1140 1111T1082 1087T1024 1038T952 955L698 639L1032 161Q1060 123 1081 100T1122 64T1167 44T1226 33V0H709V33Q724 35 738 36T756 37Q842 39 842 87Q842 129 754 258L588 501L382 244Q357 213 340 190T312 148T296 117T291 94Q291 79 298 69T319 51T360 40T423 33V0H17V33Q40 35 57 38T88 47T119 66T155 100T203 153T269 231L543 568L354 846Q311 906 279 950T221 1023T174 1071T133 1100T89 1114T38 1119V1153H564V1119L515 1118Q472 1116 452 1105T432 1067Q432 1052 440 1031T466 978T512 904T580 806L653 703L849 943Q887 991 903 1019T919 1063Q919 1092 894 1105T797 1119V1153H1211V1119Z"/>
<glyph unicode="Y" horiz-adv-x="1257" glyph-name="Y" d="M1224 1119Q1191 1117 1164 1108T1110 1076T1053 1016T983 921L726 528V190Q726 141 733 111T758 64T812 41T905 33V0H372V33Q432 36 467 43T520 67T543 119T548 209V512L320 846Q255 937 215 991T145 1073T93 1110T38 1119V1153H525V1119Q462 1116 432 1107T402 1067Q402 1053 410 1032T432 990L689 604L938 998Q950 1018 957 1033T963 1062Q963 1093 937 1106T842 1119V1153H1224V1119Z"/>
<glyph unicode="Z" horiz-adv-x="1063" glyph-name="Z" d="M1040 306L998 0H15V26L776 1086H392Q216 1086 158 1011Q147 997 139 983T124 951T111 910T99 855H54L88 1153H1005V1126L252 66H700Q851 66 917 134Q930 149 941 164T961 199T980 244T1000 306H1040Z"/>
<glyph unicode="[" horiz-adv-x="580" glyph-name="bracketleft" d="M520 -271H153V1153H520V1109H364Q322 1109 304 1092T286 1032V-138Q286 -228 371 -228H520V-271Z"/>
<glyph unicode="\" horiz-adv-x="423" glyph-name="backslash" d="M110 1119L377 -93H308L42 1119H110Z"/>
<glyph unicode="]" horiz-adv-x="580" glyph-name="bracketright" d="M216 -228Q256 -228 275 -210T294 -151V1018Q294 1109 209 1109H59V1153H427V-271H59V-228H216Z"/>
<glyph unicode="^" horiz-adv-x="817" glyph-name="asciicircum" d="M42 517L357 1153H462L776 517H658L409 1020L160 517H42Z"/>
<glyph unicode="_" horiz-adv-x="870" glyph-name="underscore" d="M0 -218V-131H870V-218H0Z"/>
<glyph unicode="`" horiz-adv-x="580" glyph-name="grave" d="M352 882L83 1051Q60 1068 47 1087T33 1126Q33 1151 49 1166T93 1181Q111 1181 127 1172T166 1140L422 882H352Z"/>
<glyph unicode="a" horiz-adv-x="773" glyph-name="a" d="M769 70Q746 44 727 28T691 1T655 -13T613 -17Q559 -17 534 12T501 110Q461 76 428 52T364 13T305 -10T247 -17Q207 -17 174 -3T116 35T79 94T65 169Q65 212 82 253T127 320Q146 337 162 350T197 375T241 399T301 426T385 461T500 508V615Q500 687 466 723T367 759Q341 759 318 753T278 735T252 708T242 674Q242 659 247 637T251 604Q251 589 245 576T228 553T203 537T173 531Q143 531 121 554T98 606Q98 647 121 683T183 745T275 786T390 801Q547 801 606 705Q625 674 633 632T641 522V183Q641 125 652 104T693 82Q713 82 730 89T769 115V70ZM500 467Q421 438 367 411T280 356T233 295T218 224V218Q218 190 227 166T250 123T284 94T327 83Q353 83 388 94T455 123Q468 130 477 138T490 156T498 180T500 214V467Z"/>
<glyph unicode="b" horiz-adv-x="870" glyph-name="b" d="M266 653Q279 685 304 712T361 759T431 790T508 801Q574 801 630 772T727 692T791 572T814 423Q814 330 783 250T697 110T568 17T407 -17Q355 -17 304 -7T212 18T146 54T120 94V998Q120 1025 117 1043T104 1070T78 1083T35 1086Q26 1086 20 1086T5 1085V1113L56 1126Q87 1135 112 1142T160 1156T207 1171T258 1189L266 1186V653ZM266 122Q266 105 280 90T317 64T371 45T435 38Q544 38 603 117T661 343Q661 422 646 487T601 597T531 667T439 691Q404 691 373 680T318 651T280 609T266 560V122Z"/>
<glyph unicode="c" horiz-adv-x="773" glyph-name="c" d="M717 256Q697 218 681 189T650 138T619 98T585 65Q535 23 485 3T374 -17Q302 -17 241 12T136 92T68 214T43 371Q43 474 78 560T179 703Q233 751 296 776T425 801Q480 801 529 787T614 748T672 691T693 621Q693 591 668 570T609 548Q583 548 561 570T528 628L517 666Q511 690 503 707T483 733T455 747T414 751Q361 751 318 729T244 666T195 570T178 447Q178 372 198 310T254 203T339 133T447 108Q485 108 516 117T576 144T633 195T693 271L717 256Z"/>
<glyph unicode="d" horiz-adv-x="870" glyph-name="d" d="M592 -12V99Q548 37 495 10T369 -17Q297 -17 238 10T137 87T71 205T47 357Q47 450 76 531T153 672T268 767T409 801Q435 801 458 797T502 785T545 762T592 726V998Q592 1024 589 1041T576 1068T552 1082T512 1086Q501 1086 493 1086T473 1085V1113Q515 1124 549 1133T612 1151T670 1169T729 1189L738 1186V198Q738 165 742 145T756 115T784 102T831 99Q835 99 841 99T855 101V73L599 -17L592 -12ZM592 578Q592 612 578 644T538 699T481 738T414 752Q364 752 324 729T256 663T212 560T196 427Q196 346 214 281T263 170T339 98T437 73Q515 73 563 125Q576 139 584 154T592 178V578Z"/>
<glyph unicode="e" horiz-adv-x="773" glyph-name="e" d="M738 274Q683 129 590 56T369 -17Q294 -17 234 10T131 88T66 210T43 372Q43 471 72 551T149 686T265 771T407 801Q476 801 534 775T630 701Q646 681 658 660T679 614T694 556T705 482H169Q172 387 193 316T250 197T334 127T440 103Q482 103 518 113T586 145T649 201T711 286L738 274ZM528 538Q519 595 506 633T474 695T426 728T357 738Q276 738 232 690T173 538H528Z"/>
<glyph unicode="f" horiz-adv-x="580" glyph-name="f" d="M538 728H326V181Q326 132 331 103T353 57T402 34T487 26V0H35V26Q82 29 111 36T154 59T174 104T179 181V728H37V784H179Q180 836 184 875T194 946T213 1006T241 1062Q276 1122 340 1156T485 1189Q524 1189 558 1181T615 1159T653 1125T666 1081Q666 1051 645 1031T593 1010Q571 1010 554 1024T515 1073Q492 1111 472 1126T423 1140Q372 1140 348 1101T324 985V784H538V728Z"/>
<glyph unicode="g" horiz-adv-x="870" glyph-name="g" d="M674 676Q692 634 699 601T706 530Q706 464 687 417T623 332Q576 292 525 276T419 259Q406 259 386 261T336 268Q318 263 300 250T266 221T241 188T231 158Q231 117 367 111L592 101Q689 96 746 46T802 -85Q802 -136 780 -177T706 -261Q671 -289 630 -311T543 -348T448 -371T350 -379Q288 -379 233 -365T137 -329T72 -276T48 -211Q48 -186 58 -162T88 -114T141 -60T219 2Q166 28 147 48T127 94Q127 115 135 131T160 167T208 213T282 284Q195 327 158 381T120 517Q120 578 143 630T206 720T300 780T416 801Q448 801 482 793T550 774L588 761Q614 752 636 748T684 743H819V676H674ZM256 -3Q229 -36 213 -58T187 -96T174 -125T171 -153Q171 -182 189 -205T240 -246T320 -272T425 -281Q498 -281 559 -269T663 -234T730 -180T754 -111Q754 -87 743 -71T706 -45T639 -30T538 -26Q506 -26 466 -24T387 -19T313 -12T256 -3ZM264 583Q264 520 277 469T314 381T370 324T442 303Q502 303 538 345T573 462Q573 513 559 569T520 670Q500 709 467 731T394 752Q334 752 299 709T264 588V583Z"/>
<glyph unicode="h" horiz-adv-x="870" glyph-name="h" d="M274 178Q274 133 278 105T295 61T331 38T392 26V0H15V26Q52 31 75 38T109 61T124 104T127 178V998Q127 1026 124 1044T111 1071T84 1083T38 1086Q32 1086 28 1086T17 1085V1113L65 1126Q101 1136 129 1144T179 1160T222 1174T264 1189L274 1184V654Q304 693 334 721T394 767T458 793T530 801Q743 801 743 524V178Q743 133 746 106T760 64T792 40T847 26V0H479V26Q517 30 540 38T576 62T593 106T597 178V522Q597 706 467 706Q441 706 418 700T372 682T325 648T274 597V178Z"/>
<glyph unicode="i" horiz-adv-x="484" glyph-name="i" d="M312 796V178Q312 131 316 103T334 58T372 36T440 26V0H28V26Q73 29 100 36T142 58T162 102T166 178V581Q166 639 153 663T108 686Q97 685 81 684T48 681L35 679V705L304 801L312 796ZM223 1189Q242 1189 259 1182T288 1163T307 1135T314 1100Q314 1081 307 1065T288 1037T259 1018T223 1011Q186 1011 161 1037T136 1100Q136 1118 143 1135T162 1163T190 1182T223 1189Z"/>
<glyph unicode="j" horiz-adv-x="484" glyph-name="j" d="M336 0Q336 -188 262 -283T42 -379Q7 -379 -23 -372T-75 -352T-109 -322T-122 -284Q-122 -255 -101 -235T-50 -216Q-29 -216 -10 -228T33 -271Q56 -299 71 -309T106 -320Q123 -320 141 -311T166 -289Q173 -276 178 -260T185 -220T189 -162T190 -78V581Q190 638 177 662T134 686Q120 686 102 685T65 681L56 679V706Q94 718 127 729T192 751T256 774T327 801L336 796V0ZM247 1189Q266 1189 283 1182T311 1163T330 1135T337 1100Q337 1062 311 1037T247 1011Q210 1011 185 1037T160 1100Q160 1118 167 1135T186 1163T214 1182T247 1189Z"/>
<glyph unicode="k" horiz-adv-x="870" glyph-name="k" d="M12 1113L65 1126Q103 1135 133 1143T187 1159T235 1174T282 1189L289 1186V455L528 666Q546 683 557 699T568 726Q568 745 550 751T480 759V784H836V757H822Q777 757 741 747Q721 741 693 724T628 680T550 617T460 538L409 491L676 153Q703 120 728 97T776 58T825 36T879 26V0H500V26H533Q548 26 559 34T569 52Q569 59 565 67T550 88Q540 98 538 105L289 437V116Q289 70 310 51T385 28L420 26V0H12V26Q59 34 86 41T125 59T140 90T143 143V982Q143 1013 140 1034T127 1066T104 1083T68 1088Q54 1088 42 1087T12 1085V1113Z"/>
<glyph unicode="l" horiz-adv-x="484" glyph-name="l" d="M33 1113Q78 1124 114 1133T183 1151T246 1169T310 1189L317 1186V146Q317 110 322 88T341 53T381 35T447 26V0H37V26Q78 29 104 36T145 57T166 94T171 151V982Q171 1043 155 1066T98 1088Q87 1088 73 1087T43 1085H33V1113Z"/>
<glyph unicode="m" horiz-adv-x="1354" glyph-name="m" d="M33 722Q69 732 99 741T158 760T215 779T277 801L289 797V666Q343 707 381 734T449 775T504 796T558 801Q630 801 675 765T743 654Q814 731 883 766T1027 801Q1229 801 1229 491V133Q1229 80 1247 57T1304 30L1349 26V0H968V26Q1005 30 1028 37T1063 56T1079 92T1083 151V518Q1083 572 1077 609T1055 669T1014 701T952 711Q892 711 847 686T762 604V166Q762 125 768 99T788 56T826 34T887 26V0H498V26Q535 29 558 35T594 54T612 90T616 150V528Q616 711 501 711Q478 711 454 706T405 691T360 669T322 641Q312 632 304 621T296 608V116Q296 91 302 74T321 47T357 32T414 26V0H28V26Q64 27 88 33T126 53T145 90T150 148V588Q150 651 137 676T88 700Q74 700 62 699T33 693V722Z"/>
<glyph unicode="n" horiz-adv-x="870" glyph-name="n" d="M28 722Q64 733 94 742T152 760T208 779T268 801L280 797V660Q325 702 359 729T421 772T476 795T533 801Q630 801 684 733T738 540V141Q738 109 743 89T759 55T792 36T844 26V0H482V26Q515 29 536 37T570 61T587 104T592 173V536Q592 624 561 665T465 705Q443 705 424 701T385 685T341 654T286 606V116Q286 93 292 77T310 51T345 35T400 26V0H31V26Q64 29 85 36T118 57T135 95T139 156V588Q139 652 125 676T75 700Q61 700 49 699T28 693V722Z"/>
<glyph unicode="o" horiz-adv-x="870" glyph-name="o" d="M435 801Q519 801 590 772T711 690T791 565T819 407Q819 317 790 240T708 105T585 16T432 -17Q349 -17 279 14T158 100T79 230T50 394Q50 484 79 559T158 687T280 771T435 801ZM412 752Q365 752 328 733T263 678T222 592T207 479Q207 398 222 318T268 174T345 71T452 31Q501 31 540 53T606 115T647 215T661 347Q661 436 643 511T591 639T513 722T412 752Z"/>
<glyph unicode="p" horiz-adv-x="870" glyph-name="p" d="M15 712Q51 723 82 733T142 754T201 776T266 801L277 797V663Q335 735 394 768T528 801Q591 801 645 774T737 697T797 579T819 430Q819 335 791 254T713 112T596 18T452 -17Q425 -17 403 -13T360 -1T319 22T277 58V-216Q277 -257 283 -282T305 -322T351 -341T430 -347V-377H8V-349Q47 -345 71 -338T109 -318T127 -283T131 -228V586Q131 622 127 642T113 672T82 684T31 686Q27 686 23 686T15 684V712ZM277 153Q277 133 294 113T337 76T395 49T458 38Q505 38 544 62T610 128T653 230T668 362Q668 438 653 500T610 605T543 672T455 696Q425 696 393 686T336 658T294 621T277 581V153Z"/>
<glyph unicode="q" horiz-adv-x="870" glyph-name="q" d="M721 796H739V-246Q739 -273 743 -290T759 -319T792 -338T849 -354V-377H439V-349Q485 -345 515 -337T563 -315T587 -277T593 -216V111Q536 48 467 16T320 -17Q258 -17 207 11T120 88T63 206T42 357Q42 451 72 533T153 674T275 768T427 802Q452 802 476 799T523 789T571 769T626 739L721 796ZM593 580Q593 754 432 754Q376 754 332 731T256 664T208 558T191 420Q191 344 207 283T253 179T325 112T420 88Q460 88 499 103T569 143Q582 153 588 171T593 221V580Z"/>
<glyph unicode="r" horiz-adv-x="580" glyph-name="r" d="M12 706Q51 718 83 729T145 751T205 774T269 801L279 797V637Q311 683 338 715T388 765T436 793T487 801Q532 801 558 777T583 709Q583 672 565 651T515 630Q498 630 482 638T445 665Q431 678 421 685T400 691Q383 691 362 677T323 641T292 594T279 548V156Q279 119 286 95T309 56T354 35T427 26V0H8V26Q50 34 75 42T113 62T129 94T133 146V581Q133 639 119 663T73 686Q57 686 44 685T12 679V706Z"/>
<glyph unicode="s" horiz-adv-x="677" glyph-name="s" d="M522 547Q507 605 489 646T449 712T397 749T331 761Q271 761 234 728T196 643Q196 607 216 576T271 524L460 412Q537 366 572 318T606 206Q606 160 587 120T534 49T456 1T360 -17Q341 -17 310 -12T248 -1T190 9T153 14Q138 14 130 10T113 -7H90V264H118Q127 227 135 200T151 152T169 115T193 82Q218 53 256 37T339 21Q406 21 445 55T484 146Q484 226 394 277L292 334Q236 365 197 395T134 454T99 516T88 585Q88 632 106 672T156 740T231 784T326 799Q359 799 389 794T447 778Q461 773 473 770T492 766Q500 766 503 768T518 780L522 784H541V547H522Z"/>
<glyph unicode="t" horiz-adv-x="484" glyph-name="t" d="M444 728H268V229Q268 147 289 110T359 73Q388 73 412 87T463 134L485 115Q442 46 392 15T277 -17Q122 -17 122 204V728H30Q23 732 23 739Q23 755 52 773Q62 776 81 792T122 833T171 891T221 959Q231 973 239 985T256 1008Q264 1008 266 1004T268 985V784H444V728Z"/>
<glyph unicode="u" horiz-adv-x="870" glyph-name="u" d="M834 63Q801 54 772 46T714 28T657 9T595 -15L588 -12V133L513 58Q476 21 430 2T334 -17Q286 -17 248 -1T181 45T138 116T123 209V648Q123 678 118 699T101 732T67 751T15 759V784H269V216Q269 189 279 165T306 122T346 94T394 83Q473 83 547 143Q565 157 573 178T580 235V644Q580 677 575 698T556 730T516 747T450 754V784H726V186Q726 156 730 137T746 107T776 91T825 87H834V63Z"/>
<glyph unicode="v" horiz-adv-x="870" glyph-name="v" d="M830 757Q811 755 798 750T774 731T749 691T717 621L495 63Q475 12 464 -6T445 -25Q434 -25 424 -3T400 58L191 557Q161 624 142 664T107 723T75 750T33 757V784H374V757Q329 753 312 743T294 709Q294 697 298 680T310 644L487 198L660 649Q670 675 670 701Q670 750 588 757V784H830V757Z"/>
<glyph unicode="w" horiz-adv-x="1257" glyph-name="w" d="M1208 784V757Q1195 752 1187 747T1171 733T1156 707T1136 663L897 61Q886 35 879 18T867 -8T857 -21T847 -25Q842 -25 839 -22T831 -11T821 12T806 50L648 462L452 43Q436 9 427 -8T409 -25Q394 -25 364 52L129 648Q114 681 104 702T83 734T63 751T37 757V784H350V757Q302 751 286 738T269 695Q268 683 272 672T280 648L452 193L611 540Q588 606 573 647T541 712T506 745T456 757V784H809V757Q779 752 760 748T729 736T713 719T709 694Q709 686 710 680T713 665T721 639T738 592L884 202L1041 588Q1055 623 1063 653T1071 703Q1071 726 1055 737T994 757V784H1208Z"/>
<glyph unicode="x" horiz-adv-x="870" glyph-name="x" d="M484 26Q526 28 540 37T553 68Q553 83 543 99L385 343L247 129Q212 76 212 58Q212 41 229 34T282 26V0H30V26Q52 28 67 32T96 45T123 71T156 115L355 402L191 653Q171 683 155 703T124 735T93 752T58 757H42V784H402V757Q363 756 345 747T327 719Q327 702 349 661T407 564L432 530Q462 576 484 606T520 657T541 691T548 719Q548 737 533 746T479 757V784H754V757Q712 756 675 736T613 681L468 472L691 131Q711 102 728 82T762 50T797 32T834 26V0H484V26Z"/>
<glyph unicode="y" horiz-adv-x="870" glyph-name="y" d="M827 757Q811 755 800 751T779 737T761 714T743 679L475 -31Q440 -125 406 -191T337 -299T263 -360T181 -379Q154 -379 130 -371T89 -350T62 -318T52 -279Q52 -247 75 -224T127 -202Q148 -202 172 -206T219 -221Q232 -226 242 -229T260 -233Q278 -233 304 -213T350 -155Q361 -137 373 -108T396 -51T413 1T420 33Q420 53 400 98T343 209L317 261L312 275L113 703Q92 749 25 759V784H383V757Q326 755 304 745T282 711Q282 683 299 644L500 204L668 684Q671 693 674 701T676 714Q676 757 592 757V784H827V757Z"/>
<glyph unicode="z" horiz-adv-x="773" glyph-name="z" d="M703 0H47V26L510 731H269Q230 731 205 725T164 702T138 656T123 578H93V784H701V757L233 52H473Q540 52 584 64T646 98Q654 108 661 120T673 148T685 187T696 242L728 235L703 0Z"/>
<glyph unicode="{" horiz-adv-x="836" glyph-name="braceleft" d="M609 -315Q566 -315 535 -312T479 -305T436 -291T399 -271Q362 -247 342 -196T322 -71V237Q322 282 316 314T292 368T247 406T174 435Q218 448 247 464T292 501T316 555T322 632V942Q322 1013 337 1059T385 1132T474 1171T609 1184V1164Q564 1152 534 1136T485 1095T458 1035T450 950V658Q450 604 443 567T418 505T368 463T287 433Q336 421 368 405T418 364T443 302T450 211V-82Q450 -131 458 -166T485 -226T534 -267T609 -296V-315Z"/>
<glyph unicode="|" horiz-adv-x="348" glyph-name="bar" d="M116 1176H231V-25H116V1176Z"/>
<glyph unicode="}" horiz-adv-x="836" glyph-name="braceright" d="M226 1184Q270 1183 302 1181T357 1173T400 1160T437 1140Q473 1117 493 1066T513 940V632Q513 586 520 555T543 501T589 464T661 435Q617 421 589 406T543 368T520 315T513 237V-73Q513 -225 437 -271Q418 -283 399 -291T356 -304T301 -312T226 -315V-296Q271 -284 302 -267T351 -226T377 -166T385 -82V211Q385 265 392 302T418 364T468 406T548 435Q499 447 468 463T418 504T392 566T385 658V950Q385 999 377 1035T351 1095T302 1136T226 1164V1184Z"/>
<glyph unicode="~" horiz-adv-x="942" glyph-name="asciitilde" d="M874 472Q844 430 818 402T767 356T716 332T660 324Q630 324 607 327T556 340T491 369T395 418Q372 430 345 436T292 442Q272 442 256 438T225 423T196 396T164 354L70 409Q100 451 126 479T177 525T228 550T284 557Q313 557 336 554T387 541T453 513T548 463Q571 450 598 445T651 439Q670 439 687 443T718 458T748 485T780 528L874 472Z"/>
<glyph unicode="&#x7f;" horiz-adv-x="1063" glyph-name=".notdef"/>
<glyph unicode="&#x80;" horiz-adv-x="1063" glyph-name=".notdef"/>
<glyph unicode="&#x81;" horiz-adv-x="1063" glyph-name=".notdef"/>
<glyph unicode="&#x82;" horiz-adv-x="1063" glyph-name=".notdef"/>
<glyph unicode="&#x83;" horiz-adv-x="1063" glyph-name=".notdef"/>
<glyph unicode="&#x84;" horiz-adv-x="1063" glyph-name=".notdef"/>
<glyph unicode="&#x85;" horiz-adv-x="1063" glyph-name=".notdef"/>
<glyph unicode="&#x86;" horiz-adv-x="1063" glyph-name=".notdef"/>
<glyph unicode="&#x87;" horiz-adv-x="1063" glyph-name=".notdef"/>
<glyph unicode="&#x88;" horiz-adv-x="1063" glyph-name=".notdef"/>
<glyph unicode="&#x89;" horiz-adv-x="1063" glyph-name=".notdef"/>
<glyph unicode="&#x8a;" horiz-adv-x="1063" glyph-name=".notdef"/>
<glyph unicode="&#x8b;" horiz-adv-x="1063" glyph-name=".notdef"/>
<glyph unicode="&#x8c;" horiz-adv-x="1063" glyph-name=".notdef"/>
<glyph unicode="&#x8d;" horiz-adv-x="1063" glyph-name=".notdef"/>
<glyph unicode="&#x8e;" horiz-adv-x="1063" glyph-name=".notdef"/>
<glyph unicode="&#x8f;" horiz-adv-x="1063" glyph-name=".notdef"/>
<glyph unicode="&#x90;" horiz-adv-x="1063" glyph-name=".notdef"/>
<glyph unicode="&#x91;" horiz-adv-x="1063" glyph-name=".notdef"/>
<glyph unicode="&#x92;" horiz-adv-x="1063" glyph-name=".notdef"/>
<glyph unicode="&#x93;" horiz-adv-x="1063" glyph-name=".notdef"/>
<glyph unicode="&#x94;" horiz-adv-x="1063" glyph-name=".notdef"/>
<glyph unicode="&#x95;" horiz-adv-x="1063" glyph-name=".notdef"/>
<glyph unicode="&#x96;" horiz-adv-x="1063" glyph-name=".notdef"/>
<glyph unicode="&#x97;" horiz-adv-x="1063" glyph-name=".notdef"/>
<glyph unicode="&#x98;" horiz-adv-x="1063" glyph-name=".notdef"/>
<glyph unicode="&#x99;" horiz-adv-x="1063" glyph-name=".notdef"/>
<glyph unicode="&#x9a;" horiz-adv-x="1063" glyph-name=".notdef"/>
<glyph unicode="&#x9b;" horiz-adv-x="1063" glyph-name=".notdef"/>
<glyph unicode="&#x9c;" horiz-adv-x="1063" glyph-name=".notdef"/>
<glyph unicode="&#x9d;" horiz-adv-x="1063" glyph-name=".notdef"/>
<glyph unicode="&#x9e;" horiz-adv-x="1063" glyph-name=".notdef"/>
<glyph unicode="&#x9f;" horiz-adv-x="1063" glyph-name=".notdef"/>
<glyph unicode="&#xa0;" horiz-adv-x="1063" glyph-name=".notdef"/>
<glyph unicode="&#xa1;" horiz-adv-x="1063" glyph-name=".notdef"/>
<glyph unicode="&#xa2;" horiz-adv-x="693" glyph-name="cent" d="M365 -18L404 176Q142 195 142 355Q142 459 242 535T492 622L527 799H572L537 622Q637 617 715 601L689 471H644Q644 477 645 488Q648 509 648 517Q648 572 528 578L459 229Q567 229 661 280L650 229Q544 176 448 176L409 -18H365ZM415 232L484 578Q272 547 272 383Q272 255 415 232Z"/>
<glyph unicode="&#xa3;" horiz-adv-x="874" glyph-name="sterling" d="M17 0L109 88H122Q229 88 273 137T347 343L356 391H196L205 436H365L378 499Q407 642 497 721T718 800Q797 800 892 765L858 586H808L810 598Q812 608 812 620Q812 746 679 746Q614 746 585 710T535 569L508 436H748L739 391H499L492 359Q473 265 428 208T275 88H480Q617 88 679 103T819 167L808 113Q735 35 666 8T470 -20L442 -19L17 0Z"/>
<glyph unicode="&#xa4;" horiz-adv-x="932" glyph-name="currency" d="M769 322L879 184L841 153L732 292Q616 214 504 214Q394 214 310 292L145 153L120 184L286 322Q243 397 243 470Q243 613 369 743L259 882L297 913L407 775Q521 852 634 852Q744 852 828 775L994 913L1019 882L852 743Q895 668 895 596Q895 455 769 322ZM818 579Q818 666 762 722T620 777Q502 777 411 688T320 485Q320 400 377 345T519 289Q635 289 727 378T818 579Z"/>
<glyph unicode="&#xa5;" horiz-adv-x="965" glyph-name="yen" d="M156 0L247 99Q269 97 279 97Q415 97 477 257H272L280 301H489Q495 346 499 409H301L310 453H499Q499 465 499 470Q499 567 464 631T375 695Q322 695 250 638T139 509L106 534Q172 650 269 725T452 799Q612 799 612 518L611 472Q736 799 971 799Q1045 799 1100 765L1016 653Q967 684 915 684Q742 684 651 453H835L826 409H643L634 369Q627 335 609 301H805L796 257H585Q519 138 389 91L624 77L534 -18L156 0Z"/>
<glyph unicode="&#xa6;" horiz-adv-x="355" glyph-name="brokenbar" d="M86 -213L203 373H301L184 -213H86ZM238 551L355 1137H453L337 551H238Z"/>
<glyph unicode="&#xa7;" horiz-adv-x="932" glyph-name="section" d="M107 -153L232 -80Q348 -178 481 -178Q564 -178 622 -127T679 -5Q679 48 646 81T513 160L440 193Q247 283 247 409Q247 528 409 652Q328 717 328 815Q328 938 440 1016T727 1093Q814 1093 933 1060L897 879H853Q857 904 857 916Q857 1039 652 1039Q560 1039 501 987T441 853Q441 798 466 775T613 686L674 652Q854 553 854 444Q854 319 703 200Q801 136 801 40Q801 -75 685 -153T397 -231Q244 -231 107 -153ZM667 229Q747 319 747 394Q747 470 628 527L558 562Q495 593 445 625Q355 545 355 456Q355 382 474 326L571 279Q607 263 667 229Z"/>
<glyph unicode="&#xa8;" horiz-adv-x="862" glyph-name="dieresis" d="M495 923L408 1033L520 1119L607 1003L495 923ZM841 923L752 1035L866 1119L951 1004L841 923Z"/>
<glyph unicode="&#xa9;" horiz-adv-x="1244" glyph-name="copyright" d="M725 -27Q495 -27 331 137T166 533Q166 765 331 929T725 1093Q958 1093 1122 929T1286 533Q1286 301 1122 137T725 -27ZM725 18Q939 18 1090 169T1241 533Q1241 746 1090 897T725 1048Q513 1048 362 897T211 533Q211 320 362 169T725 18ZM890 246Q785 213 704 213Q580 213 508 280T436 462Q436 625 541 735T805 844Q896 844 1003 814L967 675L915 684L923 766Q854 798 792 798Q688 798 616 700T544 462Q544 271 722 271Q823 271 902 307L890 246Z"/>
<glyph unicode="&#xaa;" horiz-adv-x="1063" glyph-name=".notdef"/>
<glyph unicode="&#xab;" horiz-adv-x="748" glyph-name="guillemotleft" d="M747 -70Q738 -81 691 -118Q462 82 462 287Q462 494 690 693Q726 671 747 647Q573 454 573 287Q573 119 747 -70ZM469 -70Q462 -81 416 -118Q187 79 187 287Q187 498 416 692Q451 671 469 647Q299 455 299 287Q299 119 469 -70Z"/>
<glyph unicode="&#xac;" horiz-adv-x="932" glyph-name="logicalnot" d="M177 510L193 590H975L906 248H814L866 510H177Z"/>
<glyph unicode="&#xad;" horiz-adv-x="1063" glyph-name=".notdef"/>
<glyph unicode="&#xae;" horiz-adv-x="897" glyph-name="registered" d="M580 445Q448 445 355 539T261 764Q261 896 355 990T580 1084Q714 1084 807 990T900 764Q900 632 807 539T580 445ZM580 484Q695 484 778 567T860 764Q860 878 778 961T580 1044Q466 1044 384 961T301 764Q301 650 384 567T580 484ZM529 737L501 596H394L403 639H456L511 915H458L466 959H598Q751 959 751 875Q751 800 650 750L685 639H747L738 596H641L591 737H529ZM538 782H574Q697 782 697 866Q697 915 607 915H564L538 782Z"/>
<glyph unicode="&#xaf;" horiz-adv-x="1118" glyph-name="overscore" d="M1134 1659H-16V1789H1134V1659Z"/>
<glyph unicode="&#xb0;" horiz-adv-x="409" glyph-name="degree" d="M395 844Q344 844 308 880T271 968Q271 1021 308 1057T395 1093Q447 1093 483 1057T519 968Q519 916 483 880T395 844ZM395 888Q427 888 451 912T474 968Q474 1000 451 1024T395 1048Q363 1048 339 1024T315 968Q315 936 339 912T395 888Z"/>
<glyph unicode="&#xb1;" horiz-adv-x="932" glyph-name="plusminus" d="M76 0L92 80H873L858 0H76ZM469 213L525 493H174L189 573H541L596 852H676L621 573H971L956 493H605L549 213H469Z"/>
<glyph unicode="&#xb2;" horiz-adv-x="596" glyph-name="twosuperior" d="M187 516L207 617Q362 712 455 804T547 952Q547 1046 463 1046Q352 1046 331 928H278L304 1059Q400 1093 484 1093Q674 1093 674 959Q674 887 625 842T297 617H607L587 516H187Z"/>
<glyph unicode="&#xb3;" horiz-adv-x="596" glyph-name="threesuperior" d="M185 545L257 620Q337 556 418 556Q460 556 491 587T521 661Q521 776 345 776Q323 776 301 773L331 859Q350 860 365 860Q412 860 466 849Q547 886 547 961Q547 1046 454 1046Q365 1046 342 941H289L311 1057Q398 1093 484 1093Q662 1093 662 984Q662 893 520 829Q625 790 625 693Q625 616 555 563T378 510Q289 510 185 545Z"/>
<glyph unicode="&#xb4;" horiz-adv-x="256" glyph-name="acute" d="M118 999Q195 1083 192 1046Q183 1014 136 924T66 802Q55 796 62 848Q83 919 118 999Z"/>
<glyph unicode="&#xb5;" horiz-adv-x="992" glyph-name="" d="M100 -302L155 -76L270 500Q282 560 282 611Q282 693 206 782L368 790Q427 740 427 623Q427 576 409 481L355 213Q347 176 347 161Q347 106 391 106Q446 106 554 229T753 519L805 782L958 790L905 569L834 213Q818 132 818 106Q818 53 861 53Q931 53 1075 218L1062 151Q905 -18 779 -18Q675 -18 675 91Q675 128 692 213L727 391H717Q517 0 312 0L255 -284L100 -302Z"/>
<glyph unicode="&#xb6;" horiz-adv-x="932" glyph-name="paragraph" d="M365 -239L511 496Q241 542 241 747Q241 876 347 968T628 1085L660 1244H704L673 1085L703 1086Q744 1086 796 1080L828 1244H873L839 1071Q891 1057 948 1036L938 988Q898 1005 830 1024L742 586Q794 603 869 643L859 586Q794 549 732 530L578 -239H534L684 514Q597 496 556 496L409 -239H365ZM695 568L787 1031Q738 1040 704 1040Q691 1040 664 1039L567 553Q625 553 695 568Z"/>
<glyph unicode="&#xb7;" horiz-adv-x="724" glyph-name="middot" d="M482 832H243V1117H482V832Z"/>
<glyph unicode="&#xb8;" horiz-adv-x="862" glyph-name="cedilla" d="M456 0L414 -64Q485 -86 485 -147Q485 -198 429 -241T303 -284Q272 -284 237 -277L292 -201Q326 -223 352 -223Q416 -223 416 -171Q416 -112 318 -112L394 0H456Z"/>
<glyph unicode="&#xb9;" horiz-adv-x="596" glyph-name="onesuperior" d="M573 1093L487 657Q476 607 476 589Q476 570 532 563L591 560L582 516H210L218 560L279 563Q328 567 338 578T362 657L418 938Q423 960 423 978Q423 1004 355 1013L310 1021L319 1066L573 1093Z"/>
<glyph unicode="&#xba;" horiz-adv-x="1063" glyph-name=".notdef"/>
<glyph unicode="&#xbb;" horiz-adv-x="747" glyph-name="guillemotright" d="M185 -70Q358 119 358 287Q358 454 185 647Q205 671 242 693Q469 494 469 287Q469 82 241 -118Q194 -81 185 -70ZM462 -70Q632 119 632 287Q632 455 462 647Q481 671 516 692Q745 498 745 287Q745 79 516 -118Q470 -81 462 -70Z"/>
<glyph unicode="&#xbc;" horiz-adv-x="1262" glyph-name="onequarter" d="M546 1093L460 657Q450 606 450 589Q450 570 506 563L565 560L556 516H183L192 560L253 563Q301 567 311 578T336 657L391 938Q396 960 396 978Q396 1004 328 1013L283 1021L292 1066L546 1093ZM178 -27L1198 1093H1298L275 -27H178ZM981 164L732 182L747 261L1102 578H1170L1102 236L1212 229L1168 149L1086 157Q1076 102 1076 74Q1076 52 1129 49L1189 45L1180 0H820L829 45L886 49Q937 52 952 64T973 117Q976 134 981 164ZM997 244L1038 446L823 255L997 244Z"/>
<glyph unicode="&#xbd;" horiz-adv-x="1262" glyph-name="onehalf" d="M528 1093L442 657Q432 606 432 589Q432 570 488 563L547 560L538 516H165L174 560L235 563Q283 567 293 578T318 657L373 938Q378 960 378 978Q378 1004 310 1013L265 1021L274 1066L528 1093ZM160 -27L1180 1093H1280L257 -27H160ZM778 0L797 103Q952 197 1045 288T1138 436Q1138 530 1053 530Q942 530 922 413H868L895 544Q989 578 1075 578Q1264 578 1264 445Q1264 373 1215 328T887 103H1197L1177 0H778Z"/>
<glyph unicode="&#xbe;" horiz-adv-x="1262" glyph-name="threequarters" d="M174 545L247 620Q326 556 407 556Q448 556 479 587T509 661Q509 776 333 776Q311 776 289 773L319 859Q338 860 355 860Q401 860 455 849Q535 886 535 961Q535 1046 442 1046Q354 1046 330 941H277L301 1057Q387 1093 472 1093Q651 1093 651 984Q651 893 508 829Q614 790 614 693Q614 616 543 563T366 510Q277 510 174 545ZM178 -27L1198 1093H1298L275 -27H178ZM981 164L732 182L747 261L1102 578H1170L1102 236L1212 229L1168 149L1086 157Q1076 102 1076 74Q1076 52 1129 49L1189 45L1180 0H820L829 45L886 49Q938 52 953 64T973 117Q976 134 981 164ZM997 244L1038 446L823 255L997 244Z"/>
<glyph unicode="&#xbf;" horiz-adv-x="1063" glyph-name=".notdef"/>
<glyph unicode="&#xc0;" horiz-adv-x="1063" glyph-name=".notdef"/>
<glyph unicode="&#xc1;" horiz-adv-x="1063" glyph-name=".notdef"/>
<glyph unicode="&#xc2;" horiz-adv-x="1063" glyph-name=".notdef"/>
<glyph unicode="&#xc3;" horiz-adv-x="1063" glyph-name=".notdef"/>
<glyph unicode="&#xc4;" horiz-adv-x="1063" glyph-name=".notdef"/>
<glyph unicode="&#xc5;" horiz-adv-x="1063" glyph-name=".notdef"/>
<glyph unicode="&#xc6;" horiz-adv-x="1063" glyph-name=".notdef"/>
<glyph unicode="&#xc7;" horiz-adv-x="1063" glyph-name=".notdef"/>
<glyph unicode="&#xc8;" horiz-adv-x="1063" glyph-name=".notdef"/>
<glyph unicode="&#xc9;" horiz-adv-x="1063" glyph-name=".notdef"/>
<glyph unicode="&#xca;" horiz-adv-x="1063" glyph-name=".notdef"/>
<glyph unicode="&#xcb;" horiz-adv-x="1063" glyph-name=".notdef"/>
<glyph unicode="&#xcc;" horiz-adv-x="1063" glyph-name=".notdef"/>
<glyph unicode="&#xcd;" horiz-adv-x="1063" glyph-name=".notdef"/>
<glyph unicode="&#xce;" horiz-adv-x="1063" glyph-name=".notdef"/>
<glyph unicode="&#xcf;" horiz-adv-x="1063" glyph-name=".notdef"/>
<glyph unicode="&#xd0;" horiz-adv-x="1063" glyph-name=".notdef"/>
<glyph unicode="&#xd1;" horiz-adv-x="1063" glyph-name=".notdef"/>
<glyph unicode="&#xd2;" horiz-adv-x="1063" glyph-name=".notdef"/>
<glyph unicode="&#xd3;" horiz-adv-x="1063" glyph-name=".notdef"/>
<glyph unicode="&#xd4;" horiz-adv-x="1063" glyph-name=".notdef"/>
<glyph unicode="&#xd5;" horiz-adv-x="1063" glyph-name=".notdef"/>
<glyph unicode="&#xd6;" horiz-adv-x="1063" glyph-name=".notdef"/>
<glyph unicode="&#xd7;" horiz-adv-x="820" glyph-name="multiply" d="M330 397L146 581L240 675L424 491L611 678L705 584L518 397L711 204L617 110L424 303L238 117L144 211L330 397Z"/>
<glyph unicode="&#xd8;" horiz-adv-x="1063" glyph-name=".notdef"/>
<glyph unicode="&#xd9;" horiz-adv-x="1063" glyph-name=".notdef"/>
<glyph unicode="&#xda;" horiz-adv-x="1063" glyph-name=".notdef"/>
<glyph unicode="&#xdb;" horiz-adv-x="1063" glyph-name=".notdef"/>
<glyph unicode="&#xdc;" horiz-adv-x="1063" glyph-name=".notdef"/>
<glyph unicode="&#xdd;" horiz-adv-x="1063" glyph-name=".notdef"/>
<glyph unicode="&#xde;" horiz-adv-x="1063" glyph-name=".notdef"/>
<glyph unicode="&#xdf;" horiz-adv-x="1063" glyph-name=".notdef"/>
<glyph unicode="&#xe0;" horiz-adv-x="1075" glyph-name="agrave" d="M856 70Q833 44 814 28T778 1T742 -13T700 -17Q646 -17 621 12T588 110Q548 76 515 52T451 13T392 -10T334 -17Q294 -17 261 -3T203 35T166 94T152 169Q152 212 169 253T214 320Q233 337 249 350T284 375T328 399T388 426T472 461T587 508V615Q587 687 553 723T454 759Q428 759 405 753T365 735T339 708T329 674Q329 659 334 637T338 604Q338 589 332 576T315 553T290 537T260 531Q230 531 208 554T185 606Q185 647 208 683T270 745T362 786T477 801Q634 801 693 705Q712 674 720 632T728 522V183Q728 125 739 104T780 82Q800 82 817 89T856 115V70ZM587 467Q508 438 454 411T367 356T320 295T305 224V218Q305 190 314 166T337 123T371 94T414 83Q440 83 475 94T542 123Q555 130 564 138T577 156T585 180T587 214V467ZM641 66074L372 66243Q349 66260 336 66279T322 66318Q322 66343 338 66358T382 66373Q400 66373 416 66364T455 66332L711 66074H641Z"/>
<glyph unicode="&#xe1;" horiz-adv-x="1063" glyph-name=".notdef"/>
<glyph unicode="&#xe2;" horiz-adv-x="698" glyph-name="acircumflex" d="M856 70Q833 44 814 28T778 1T742 -13T700 -17Q646 -17 621 12T588 110Q548 76 515 52T451 13T392 -10T334 -17Q294 -17 261 -3T203 35T166 94T152 169Q152 212 169 253T214 320Q233 337 249 350T284 375T328 399T388 426T472 461T587 508V615Q587 687 553 723T454 759Q428 759 405 753T365 735T339 708T329 674Q329 659 334 637T338 604Q338 589 332 576T315 553T290 537T260 531Q230 531 208 554T185 606Q185 647 208 683T270 745T362 786T477 801Q634 801 693 705Q712 674 720 632T728 522V183Q728 125 739 104T780 82Q800 82 817 89T856 115V70ZM587 467Q508 438 454 411T367 356T320 295T305 224V218Q305 190 314 166T337 123T371 94T414 83Q440 83 475 94T542 123Q555 130 564 138T577 156T585 180T587 214V467ZM877 66201L790 66148Q736 66209 700 66307Q659 66257 581 66178Q578 66174 560 66156L459 66148Q614 66262 681 66345L779 66407Q812 66294 877 66201Z"/>
<glyph unicode="&#xe3;" horiz-adv-x="1063" glyph-name=".notdef"/>
<glyph unicode="&#xe4;" horiz-adv-x="1063" glyph-name=".notdef"/>
<glyph unicode="&#xe5;" horiz-adv-x="1063" glyph-name=".notdef"/>
<glyph unicode="&#xe6;" horiz-adv-x="1063" glyph-name=".notdef"/>
<glyph unicode="&#xe7;" horiz-adv-x="805" glyph-name="ccedilla" d="M775 198L764 142Q616 37 445 -9L408 -65Q481 -86 481 -146Q481 -197 425 -240T301 -284Q272 -284 232 -277L287 -201Q322 -223 348 -223Q412 -223 412 -172Q412 -117 311 -111L376 -19Q145 5 145 228Q145 445 302 622T652 799Q736 799 819 762L770 578H725L728 589Q735 622 735 638Q735 737 599 737Q475 737 383 595T290 263Q290 62 446 62Q563 62 775 198Z"/>
<glyph unicode="&#xe8;" horiz-adv-x="1078" glyph-name="egrave" d="M738 274Q683 129 590 56T369 -17Q294 -17 234 10T131 88T66 210T43 372Q43 471 72 551T149 686T265 771T407 801Q476 801 534 775T630 701Q646 681 658 660T679 614T694 556T705 482H169Q172 387 193 316T250 197T334 127T440 103Q482 103 518 113T586 145T649 201T711 286L738 274ZM528 538Q519 595 506 633T474 695T426 728T357 738Q276 738 232 690T173 538H528ZM776 882L507 1051Q484 1068 471 1087T457 1126Q457 1151 473 1166T517 1181Q535 1181 551 1172T590 1140L846 882H776Z"/>
<glyph unicode="&#xe9;" horiz-adv-x="1078" glyph-name="eacute" d="M738 274Q683 129 590 56T369 -17Q294 -17 234 10T131 88T66 210T43 372Q43 471 72 551T149 686T265 771T407 801Q476 801 534 775T630 701Q646 681 658 660T679 614T694 556T705 482H169Q172 387 193 316T250 197T334 127T440 103Q482 103 518 113T586 145T649 201T711 286L738 274ZM528 538Q519 595 506 633T474 695T426 728T357 738Q276 738 232 690T173 538H528ZM479 999Q556 1083 553 1046Q544 1014 497 924T427 802Q416 796 423 848Q444 919 479 999Z"/>
<glyph unicode="&#xea;" horiz-adv-x="1078" glyph-name="ecircumflex" d="M738 274Q683 129 590 56T369 -17Q294 -17 234 10T131 88T66 210T43 372Q43 471 72 551T149 686T265 771T407 801Q476 801 534 775T630 701Q646 681 658 660T679 614T694 556T705 482H169Q172 387 193 316T250 197T334 127T440 103Q482 103 518 113T586 145T649 201T711 286L738 274ZM528 538Q519 595 506 633T474 695T426 728T357 738Q276 738 232 690T173 538H528ZM963 976L876 923Q822 984 786 1082Q745 1032 667 953Q664 949 646 931L545 923Q700 1037 767 1120L865 1182Q898 1069 963 976Z"/>
<glyph unicode="&#xeb;" horiz-adv-x="1078" glyph-name="edieresis" d="M738 274Q683 129 590 56T369 -17Q294 -17 234 10T131 88T66 210T43 372Q43 471 72 551T149 686T265 771T407 801Q476 801 534 775T630 701Q646 681 658 660T679 614T694 556T705 482H169Q172 387 193 316T250 197T334 127T440 103Q482 103 518 113T586 145T649 201T711 286L738 274ZM528 538Q519 595 506 633T474 695T426 728T357 738Q276 738 232 690T173 538H528ZM65900 972L65813 1082L65925 1168L66012 1052L65900 972ZM66246 972L66157 1084L66271 1168L66356 1053L66246 972Z"/>
<glyph unicode="&#xec;" horiz-adv-x="1063" glyph-name=".notdef"/>
<glyph unicode="&#xed;" horiz-adv-x="1063" glyph-name=".notdef"/>
<glyph unicode="&#xee;" horiz-adv-x="468" glyph-name="icircumflex" d="M328 0H140V1117H328V0ZM521 1297H370L231 1560L93 1297H-54L120 1676H347L521 1297Z"/>
<glyph unicode="&#xef;" horiz-adv-x="468" glyph-name="idieresis" d="M328 0H140V1117H328V0ZM506 1304H317V1499H506V1304ZM151 1304H-38V1499H151V1304Z"/>
<glyph unicode="&#xf0;" horiz-adv-x="1063" glyph-name=".notdef"/>
<glyph unicode="&#xf1;" horiz-adv-x="1063" glyph-name=".notdef"/>
<glyph unicode="&#xf2;" horiz-adv-x="1063" glyph-name=".notdef"/>
<glyph unicode="&#xf3;" horiz-adv-x="1063" glyph-name=".notdef"/>
<glyph unicode="&#xf4;" horiz-adv-x="1024" glyph-name="ocircumflex" d="M435 801Q519 801 590 772T711 690T791 565T819 407Q819 317 790 240T708 105T585 16T432 -17Q349 -17 279 14T158 100T79 230T50 394Q50 484 79 559T158 687T280 771T435 801ZM412 752Q365 752 328 733T263 678T222 592T207 479Q207 398 222 318T268 174T345 71T452 31Q501 31 540 53T606 115T647 215T661 347Q661 436 643 511T591 639T513 722T412 752ZM66209 1077L66122 1024Q66068 1085 66032 1183Q65991 1133 65913 1054Q65910 1050 65892 1032L65791 1024Q65946 1138 66013 1221L66111 1283Q66144 1170 66209 1077Z"/>
<glyph unicode="&#xf5;" horiz-adv-x="1063" glyph-name=".notdef"/>
<glyph unicode="&#xf6;" horiz-adv-x="1063" glyph-name=".notdef"/>
<glyph unicode="&#xf7;" horiz-adv-x="1093" glyph-name="divide" d="M624 674H466V855H624V674ZM933 383H157V489H933V383ZM624 17H466V198H624V17Z"/>
<glyph unicode="&#xf8;" horiz-adv-x="1063" glyph-name=".notdef"/>
<glyph unicode="&#xf9;" horiz-adv-x="1142" glyph-name="ugrave" d="M834 63Q801 54 772 46T714 28T657 9T595 -15L588 -12V133L513 58Q476 21 430 2T334 -17Q286 -17 248 -1T181 45T138 116T123 209V648Q123 678 118 699T101 732T67 751T15 759V784H269V216Q269 189 279 165T306 122T346 94T394 83Q473 83 547 143Q565 157 573 178T580 235V644Q580 677 575 698T556 730T516 747T450 754V784H726V186Q726 156 730 137T746 107T776 91T825 87H834V63ZM778 882L509 1051Q486 1068 473 1087T459 1126Q459 1151 475 1166T519 1181Q537 1181 553 1172T592 1140L848 882H778Z"/>
<glyph unicode="&#xfa;" horiz-adv-x="1063" glyph-name=".notdef"/>
<glyph unicode="&#xfb;" horiz-adv-x="1142" glyph-name="ucircumflex" d="M834 63Q801 54 772 46T714 28T657 9T595 -15L588 -12V133L513 58Q476 21 430 2T334 -17Q286 -17 248 -1T181 45T138 116T123 209V648Q123 678 118 699T101 732T67 751T15 759V784H269V216Q269 189 279 165T306 122T346 94T394 83Q473 83 547 143Q565 157 573 178T580 235V644Q580 677 575 698T556 730T516 747T450 754V784H726V186Q726 156 730 137T746 107T776 91T825 87H834V63ZM66228 1086L66141 1033Q66087 1094 66051 1192Q66010 1142 65932 1063Q65929 1059 65911 1041L65810 1033Q65965 1147 66032 1230L66130 1292Q66163 1179 66228 1086Z"/>
<glyph unicode="&#xfc;" horiz-adv-x="1142" glyph-name="udieresis" d="M834 63Q801 54 772 46T714 28T657 9T595 -15L588 -12V133L513 58Q476 21 430 2T334 -17Q286 -17 248 -1T181 45T138 116T123 209V648Q123 678 118 699T101 732T67 751T15 759V784H269V216Q269 189 279 165T306 122T346 94T394 83Q473 83 547 143Q565 157 573 178T580 235V644Q580 677 575 698T556 730T516 747T450 754V784H726V186Q726 156 730 137T746 107T776 91T825 87H834V63ZM65835 1009L65748 1119L65860 1205L65947 1089L65835 1009ZM66181 1009L66092 1121L66206 1205L66291 1090L66181 1009Z"/>
<glyph unicode="&#xfd;" horiz-adv-x="1063" glyph-name=".notdef"/>
<glyph unicode="&#xfe;" horiz-adv-x="1063" glyph-name=".notdef"/>
<glyph unicode="&#xff;" horiz-adv-x="1063" glyph-name=".notdef"/>
</font>
</defs>
</svg>
